<?xml version="1.0" encoding="UTF-8" standalone="no"?>
<!DOCTYPE svg PUBLIC "-//W3C//DTD SVG 1.1//EN"
 "http://www.w3.org/Graphics/SVG/1.1/DTD/svg11.dtd">
<!-- Generated by graphviz version 3.0.0 (20220226.1711)
 -->
<!-- Title: G Pages: 1 -->
<svg width="1024pt" height="1251pt"
 viewBox="0.00 0.00 1024.20 1251.20" xmlns="http://www.w3.org/2000/svg" xmlns:xlink="http://www.w3.org/1999/xlink">
<g id="graph0" class="graph" transform="scale(1 1) rotate(0) translate(21.6 1229.6)">
<title>G</title>
<polygon fill="#111111" stroke="transparent" points="-21.6,21.6 -21.6,-1229.6 1002.6,-1229.6 1002.6,21.6 -21.6,21.6"/>
<!-- ../components/AdInPost.js -->
<g id="node1" class="node">
<title>../components/AdInPost.js</title>
<path fill="none" stroke="#cfffac" d="M401.33,-1208C401.33,-1208 242.67,-1208 242.67,-1208 238.83,-1208 235,-1204.17 235,-1200.33 235,-1200.33 235,-1192.67 235,-1192.67 235,-1188.83 238.83,-1185 242.67,-1185 242.67,-1185 401.33,-1185 401.33,-1185 405.17,-1185 409,-1188.83 409,-1192.67 409,-1192.67 409,-1200.33 409,-1200.33 409,-1204.17 405.17,-1208 401.33,-1208"/>
<text text-anchor="middle" x="322" y="-1192.8" font-family="Arial" font-size="14.00" fill="#cfffac">../components/AdInPost.js</text>
</g>
<!-- ../components/Carousel.js -->
<g id="node2" class="node">
<title>../components/Carousel.js</title>
<path fill="none" stroke="#cfffac" d="M400.83,-841C400.83,-841 243.17,-841 243.17,-841 239.33,-841 235.5,-837.17 235.5,-833.33 235.5,-833.33 235.5,-825.67 235.5,-825.67 235.5,-821.83 239.33,-818 243.17,-818 243.17,-818 400.83,-818 400.83,-818 404.67,-818 408.5,-821.83 408.5,-825.67 408.5,-825.67 408.5,-833.33 408.5,-833.33 408.5,-837.17 404.67,-841 400.83,-841"/>
<text text-anchor="middle" x="322" y="-825.8" font-family="Arial" font-size="14.00" fill="#cfffac">../components/Carousel.js</text>
</g>
<!-- ../components/DesktopNavigation.js -->
<g id="node3" class="node">
<title>../components/DesktopNavigation.js</title>
<path fill="none" stroke="#cfffac" d="M734.33,-841C734.33,-841 516.67,-841 516.67,-841 512.83,-841 509,-837.17 509,-833.33 509,-833.33 509,-825.67 509,-825.67 509,-821.83 512.83,-818 516.67,-818 516.67,-818 734.33,-818 734.33,-818 738.17,-818 742,-821.83 742,-825.67 742,-825.67 742,-833.33 742,-833.33 742,-837.17 738.17,-841 734.33,-841"/>
<text text-anchor="middle" x="625.5" y="-825.8" font-family="Arial" font-size="14.00" fill="#cfffac">../components/DesktopNavigation.js</text>
</g>
<!-- ../components/Dropdown.js -->
<g id="node4" class="node">
<title>../components/Dropdown.js</title>
<path fill="none" stroke="#cfffac" d="M404.83,-1126C404.83,-1126 239.17,-1126 239.17,-1126 235.33,-1126 231.5,-1122.17 231.5,-1118.33 231.5,-1118.33 231.5,-1110.67 231.5,-1110.67 231.5,-1106.83 235.33,-1103 239.17,-1103 239.17,-1103 404.83,-1103 404.83,-1103 408.67,-1103 412.5,-1106.83 412.5,-1110.67 412.5,-1110.67 412.5,-1118.33 412.5,-1118.33 412.5,-1122.17 408.67,-1126 404.83,-1126"/>
<text text-anchor="middle" x="322" y="-1110.8" font-family="Arial" font-size="14.00" fill="#cfffac">../components/Dropdown.js</text>
</g>
<!-- ../components/Footer.js -->
<g id="node5" class="node">
<title>../components/Footer.js</title>
<path fill="none" stroke="#c6c5fe" d="M393.33,-923C393.33,-923 250.67,-923 250.67,-923 246.83,-923 243,-919.17 243,-915.33 243,-915.33 243,-907.67 243,-907.67 243,-903.83 246.83,-900 250.67,-900 250.67,-900 393.33,-900 393.33,-900 397.17,-900 401,-903.83 401,-907.67 401,-907.67 401,-915.33 401,-915.33 401,-919.17 397.17,-923 393.33,-923"/>
<text text-anchor="middle" x="322" y="-907.8" font-family="Arial" font-size="14.00" fill="#c6c5fe">../components/Footer.js</text>
</g>
<!-- ../hooks/useWindowWidth.js -->
<g id="node6" class="node">
<title>../hooks/useWindowWidth.js</title>
<path fill="none" stroke="#cfffac" d="M711.33,-923C711.33,-923 539.67,-923 539.67,-923 535.83,-923 532,-919.17 532,-915.33 532,-915.33 532,-907.67 532,-907.67 532,-903.83 535.83,-900 539.67,-900 539.67,-900 711.33,-900 711.33,-900 715.17,-900 719,-903.83 719,-907.67 719,-907.67 719,-915.33 719,-915.33 719,-919.17 715.17,-923 711.33,-923"/>
<text text-anchor="middle" x="625.5" y="-907.8" font-family="Arial" font-size="14.00" fill="#cfffac">../hooks/useWindowWidth.js</text>
</g>
<!-- ../components/Footer.js&#45;&gt;../hooks/useWindowWidth.js -->
<g id="edge1" class="edge">
<title>../components/Footer.js&#45;&gt;../hooks/useWindowWidth.js</title>
<path fill="none" stroke="#757575" d="M401.04,-911.5C437.79,-911.5 482.13,-911.5 521.59,-911.5"/>
<polygon fill="#757575" stroke="#757575" points="521.78,-915 531.78,-911.5 521.78,-908 521.78,-915"/>
</g>
<!-- ../components/HeroBanner.js -->
<g id="node7" class="node">
<title>../components/HeroBanner.js</title>
<path fill="none" stroke="#cfffac" d="M409.83,-679C409.83,-679 234.17,-679 234.17,-679 230.33,-679 226.5,-675.17 226.5,-671.33 226.5,-671.33 226.5,-663.67 226.5,-663.67 226.5,-659.83 230.33,-656 234.17,-656 234.17,-656 409.83,-656 409.83,-656 413.67,-656 417.5,-659.83 417.5,-663.67 417.5,-663.67 417.5,-671.33 417.5,-671.33 417.5,-675.17 413.67,-679 409.83,-679"/>
<text text-anchor="middle" x="322" y="-663.8" font-family="Arial" font-size="14.00" fill="#cfffac">../components/HeroBanner.js</text>
</g>
<!-- ../components/MobileNavigation.js -->
<g id="node8" class="node">
<title>../components/MobileNavigation.js</title>
<path fill="none" stroke="#c6c5fe" d="M729.83,-882C729.83,-882 521.17,-882 521.17,-882 517.33,-882 513.5,-878.17 513.5,-874.33 513.5,-874.33 513.5,-866.67 513.5,-866.67 513.5,-862.83 517.33,-859 521.17,-859 521.17,-859 729.83,-859 729.83,-859 733.67,-859 737.5,-862.83 737.5,-866.67 737.5,-866.67 737.5,-874.33 737.5,-874.33 737.5,-878.17 733.67,-882 729.83,-882"/>
<text text-anchor="middle" x="625.5" y="-866.8" font-family="Arial" font-size="14.00" fill="#c6c5fe">../components/MobileNavigation.js</text>
</g>
<!-- ../components/NavMenu.js -->
<g id="node9" class="node">
<title>../components/NavMenu.js</title>
<path fill="none" stroke="#cfffac" d="M960.83,-903C960.83,-903 798.17,-903 798.17,-903 794.33,-903 790.5,-899.17 790.5,-895.33 790.5,-895.33 790.5,-887.67 790.5,-887.67 790.5,-883.83 794.33,-880 798.17,-880 798.17,-880 960.83,-880 960.83,-880 964.67,-880 968.5,-883.83 968.5,-887.67 968.5,-887.67 968.5,-895.33 968.5,-895.33 968.5,-899.17 964.67,-903 960.83,-903"/>
<text text-anchor="middle" x="879.5" y="-887.8" font-family="Arial" font-size="14.00" fill="#cfffac">../components/NavMenu.js</text>
</g>
<!-- ../components/MobileNavigation.js&#45;&gt;../components/NavMenu.js -->
<g id="edge2" class="edge">
<title>../components/MobileNavigation.js&#45;&gt;../components/NavMenu.js</title>
<path fill="none" stroke="#757575" d="M737.76,-879.77C751.88,-880.95 766.24,-882.14 780.13,-883.3"/>
<polygon fill="#757575" stroke="#757575" points="779.89,-886.79 790.15,-884.14 780.47,-879.82 779.89,-886.79"/>
</g>
<!-- ../components/NavMenuIcon.js -->
<g id="node10" class="node">
<title>../components/NavMenuIcon.js</title>
<path fill="none" stroke="#cfffac" d="M973.33,-862C973.33,-862 785.67,-862 785.67,-862 781.83,-862 778,-858.17 778,-854.33 778,-854.33 778,-846.67 778,-846.67 778,-842.83 781.83,-839 785.67,-839 785.67,-839 973.33,-839 973.33,-839 977.17,-839 981,-842.83 981,-846.67 981,-846.67 981,-854.33 981,-854.33 981,-858.17 977.17,-862 973.33,-862"/>
<text text-anchor="middle" x="879.5" y="-846.8" font-family="Arial" font-size="14.00" fill="#cfffac">../components/NavMenuIcon.js</text>
</g>
<!-- ../components/MobileNavigation.js&#45;&gt;../components/NavMenuIcon.js -->
<g id="edge3" class="edge">
<title>../components/MobileNavigation.js&#45;&gt;../components/NavMenuIcon.js</title>
<path fill="none" stroke="#757575" d="M737.76,-861.67C747.65,-860.89 757.65,-860.09 767.54,-859.31"/>
<polygon fill="#757575" stroke="#757575" points="768.09,-862.77 777.78,-858.49 767.53,-855.8 768.09,-862.77"/>
</g>
<!-- ../components/Navbar.js -->
<g id="node11" class="node">
<title>../components/Navbar.js</title>
<path fill="none" stroke="#c6c5fe" d="M395.33,-882C395.33,-882 248.67,-882 248.67,-882 244.83,-882 241,-878.17 241,-874.33 241,-874.33 241,-866.67 241,-866.67 241,-862.83 244.83,-859 248.67,-859 248.67,-859 395.33,-859 395.33,-859 399.17,-859 403,-862.83 403,-866.67 403,-866.67 403,-874.33 403,-874.33 403,-878.17 399.17,-882 395.33,-882"/>
<text text-anchor="middle" x="322" y="-866.8" font-family="Arial" font-size="14.00" fill="#c6c5fe">../components/Navbar.js</text>
</g>
<!-- ../components/Navbar.js&#45;&gt;../components/DesktopNavigation.js -->
<g id="edge4" class="edge">
<title>../components/Navbar.js&#45;&gt;../components/DesktopNavigation.js</title>
<path fill="none" stroke="#757575" d="M403,-859.62C442.01,-854.32 489.18,-847.9 529.95,-842.36"/>
<polygon fill="#757575" stroke="#757575" points="530.46,-845.82 539.9,-841 529.52,-838.88 530.46,-845.82"/>
</g>
<!-- ../components/Navbar.js&#45;&gt;../hooks/useWindowWidth.js -->
<g id="edge6" class="edge">
<title>../components/Navbar.js&#45;&gt;../hooks/useWindowWidth.js</title>
<path fill="none" stroke="#757575" d="M403,-881.38C442.01,-886.68 489.18,-893.1 529.95,-898.64"/>
<polygon fill="#757575" stroke="#757575" points="529.52,-902.12 539.9,-900 530.46,-895.18 529.52,-902.12"/>
</g>
<!-- ../components/Navbar.js&#45;&gt;../components/MobileNavigation.js -->
<g id="edge5" class="edge">
<title>../components/Navbar.js&#45;&gt;../components/MobileNavigation.js</title>
<path fill="none" stroke="#757575" d="M403,-870.5C433.68,-870.5 469.4,-870.5 503.09,-870.5"/>
<polygon fill="#757575" stroke="#757575" points="503.47,-874 513.47,-870.5 503.47,-867 503.47,-874"/>
</g>
<!-- ../components/PostCard.js -->
<g id="node12" class="node">
<title>../components/PostCard.js</title>
<path fill="none" stroke="#c6c5fe" d="M402.33,-964C402.33,-964 241.67,-964 241.67,-964 237.83,-964 234,-960.17 234,-956.33 234,-956.33 234,-948.67 234,-948.67 234,-944.83 237.83,-941 241.67,-941 241.67,-941 402.33,-941 402.33,-941 406.17,-941 410,-944.83 410,-948.67 410,-948.67 410,-956.33 410,-956.33 410,-960.17 406.17,-964 402.33,-964"/>
<text text-anchor="middle" x="322" y="-948.8" font-family="Arial" font-size="14.00" fill="#c6c5fe">../components/PostCard.js</text>
</g>
<!-- ../components/PostCard.js&#45;&gt;../hooks/useWindowWidth.js -->
<g id="edge7" class="edge">
<title>../components/PostCard.js&#45;&gt;../hooks/useWindowWidth.js</title>
<path fill="none" stroke="#757575" d="M409.86,-941C430.56,-938.23 452.56,-935.28 473,-932.5 492.04,-929.91 512.43,-927.11 531.88,-924.42"/>
<polygon fill="#757575" stroke="#757575" points="532.53,-927.86 541.95,-923.02 531.57,-920.93 532.53,-927.86"/>
</g>
<!-- ../components/PostList.js -->
<g id="node13" class="node">
<title>../components/PostList.js</title>
<path fill="none" stroke="#cfffac" d="M397.83,-1085C397.83,-1085 246.17,-1085 246.17,-1085 242.33,-1085 238.5,-1081.17 238.5,-1077.33 238.5,-1077.33 238.5,-1069.67 238.5,-1069.67 238.5,-1065.83 242.33,-1062 246.17,-1062 246.17,-1062 397.83,-1062 397.83,-1062 401.67,-1062 405.5,-1065.83 405.5,-1069.67 405.5,-1069.67 405.5,-1077.33 405.5,-1077.33 405.5,-1081.17 401.67,-1085 397.83,-1085"/>
<text text-anchor="middle" x="322" y="-1069.8" font-family="Arial" font-size="14.00" fill="#cfffac">../components/PostList.js</text>
</g>
<!-- ../google&#45;analytics.js -->
<g id="node14" class="node">
<title>../google&#45;analytics.js</title>
<path fill="none" stroke="#cfffac" d="M383.83,-64C383.83,-64 260.17,-64 260.17,-64 256.33,-64 252.5,-60.17 252.5,-56.33 252.5,-56.33 252.5,-48.67 252.5,-48.67 252.5,-44.83 256.33,-41 260.17,-41 260.17,-41 383.83,-41 383.83,-41 387.67,-41 391.5,-44.83 391.5,-48.67 391.5,-48.67 391.5,-56.33 391.5,-56.33 391.5,-60.17 387.67,-64 383.83,-64"/>
<text text-anchor="middle" x="322" y="-48.8" font-family="Arial" font-size="14.00" fill="#cfffac">../google&#45;analytics.js</text>
</g>
<!-- ../posts/foodposts&#45;handler.js -->
<g id="node15" class="node">
<title>../posts/foodposts&#45;handler.js</title>
<path fill="none" stroke="#cfffac" d="M406.83,-800C406.83,-800 237.17,-800 237.17,-800 233.33,-800 229.5,-796.17 229.5,-792.33 229.5,-792.33 229.5,-784.67 229.5,-784.67 229.5,-780.83 233.33,-777 237.17,-777 237.17,-777 406.83,-777 406.83,-777 410.67,-777 414.5,-780.83 414.5,-784.67 414.5,-784.67 414.5,-792.33 414.5,-792.33 414.5,-796.17 410.67,-800 406.83,-800"/>
<text text-anchor="middle" x="322" y="-784.8" font-family="Arial" font-size="14.00" fill="#cfffac">../posts/foodposts&#45;handler.js</text>
</g>
<!-- ../posts/posts.js -->
<g id="node16" class="node">
<title>../posts/posts.js</title>
<path fill="none" stroke="#cfffac" d="M369.33,-1005C369.33,-1005 274.67,-1005 274.67,-1005 270.83,-1005 267,-1001.17 267,-997.33 267,-997.33 267,-989.67 267,-989.67 267,-985.83 270.83,-982 274.67,-982 274.67,-982 369.33,-982 369.33,-982 373.17,-982 377,-985.83 377,-989.67 377,-989.67 377,-997.33 377,-997.33 377,-1001.17 373.17,-1005 369.33,-1005"/>
<text text-anchor="middle" x="322" y="-989.8" font-family="Arial" font-size="14.00" fill="#cfffac">../posts/posts.js</text>
</g>
<!-- ../posts/travelposts&#45;handler.js -->
<g id="node17" class="node">
<title>../posts/travelposts&#45;handler.js</title>
<path fill="none" stroke="#cfffac" d="M409.83,-1167C409.83,-1167 234.17,-1167 234.17,-1167 230.33,-1167 226.5,-1163.17 226.5,-1159.33 226.5,-1159.33 226.5,-1151.67 226.5,-1151.67 226.5,-1147.83 230.33,-1144 234.17,-1144 234.17,-1144 409.83,-1144 409.83,-1144 413.67,-1144 417.5,-1147.83 417.5,-1151.67 417.5,-1151.67 417.5,-1159.33 417.5,-1159.33 417.5,-1163.17 413.67,-1167 409.83,-1167"/>
<text text-anchor="middle" x="322" y="-1151.8" font-family="Arial" font-size="14.00" fill="#cfffac">../posts/travelposts&#45;handler.js</text>
</g>
<!-- ../public/img/about/selfie.jpg -->
<g id="node18" class="node">
<title>../public/img/about/selfie.jpg</title>
<path fill="none" stroke="#cfffac" d="M406.33,-759C406.33,-759 237.67,-759 237.67,-759 233.83,-759 230,-755.17 230,-751.33 230,-751.33 230,-743.67 230,-743.67 230,-739.83 233.83,-736 237.67,-736 237.67,-736 406.33,-736 406.33,-736 410.17,-736 414,-739.83 414,-743.67 414,-743.67 414,-751.33 414,-751.33 414,-755.17 410.17,-759 406.33,-759"/>
<text text-anchor="middle" x="322" y="-743.8" font-family="Arial" font-size="14.00" fill="#cfffac">../public/img/about/selfie.jpg</text>
</g>
<!-- ../public/img/index/canada.png -->
<g id="node19" class="node">
<title>../public/img/index/canada.png</title>
<path fill="none" stroke="#cfffac" d="M414.33,-638C414.33,-638 229.67,-638 229.67,-638 225.83,-638 222,-634.17 222,-630.33 222,-630.33 222,-622.67 222,-622.67 222,-618.83 225.83,-615 229.67,-615 229.67,-615 414.33,-615 414.33,-615 418.17,-615 422,-618.83 422,-622.67 422,-622.67 422,-630.33 422,-630.33 422,-634.17 418.17,-638 414.33,-638"/>
<text text-anchor="middle" x="322" y="-622.8" font-family="Arial" font-size="14.00" fill="#cfffac">../public/img/index/canada.png</text>
</g>
<!-- ../public/img/index/guam.png -->
<g id="node20" class="node">
<title>../public/img/index/guam.png</title>
<path fill="none" stroke="#cfffac" d="M409.33,-597C409.33,-597 234.67,-597 234.67,-597 230.83,-597 227,-593.17 227,-589.33 227,-589.33 227,-581.67 227,-581.67 227,-577.83 230.83,-574 234.67,-574 234.67,-574 409.33,-574 409.33,-574 413.17,-574 417,-577.83 417,-581.67 417,-581.67 417,-589.33 417,-589.33 417,-593.17 413.17,-597 409.33,-597"/>
<text text-anchor="middle" x="322" y="-581.8" font-family="Arial" font-size="14.00" fill="#cfffac">../public/img/index/guam.png</text>
</g>
<!-- ../public/img/index/japan.png -->
<g id="node21" class="node">
<title>../public/img/index/japan.png</title>
<path fill="none" stroke="#cfffac" d="M408.33,-556C408.33,-556 235.67,-556 235.67,-556 231.83,-556 228,-552.17 228,-548.33 228,-548.33 228,-540.67 228,-540.67 228,-536.83 231.83,-533 235.67,-533 235.67,-533 408.33,-533 408.33,-533 412.17,-533 416,-536.83 416,-540.67 416,-540.67 416,-548.33 416,-548.33 416,-552.17 412.17,-556 408.33,-556"/>
<text text-anchor="middle" x="322" y="-540.8" font-family="Arial" font-size="14.00" fill="#cfffac">../public/img/index/japan.png</text>
</g>
<!-- ../public/img/index/me.jpg -->
<g id="node22" class="node">
<title>../public/img/index/me.jpg</title>
<path fill="none" stroke="#cfffac" d="M399.33,-105C399.33,-105 244.67,-105 244.67,-105 240.83,-105 237,-101.17 237,-97.33 237,-97.33 237,-89.67 237,-89.67 237,-85.83 240.83,-82 244.67,-82 244.67,-82 399.33,-82 399.33,-82 403.17,-82 407,-85.83 407,-89.67 407,-89.67 407,-97.33 407,-97.33 407,-101.17 403.17,-105 399.33,-105"/>
<text text-anchor="middle" x="322" y="-89.8" font-family="Arial" font-size="14.00" fill="#cfffac">../public/img/index/me.jpg</text>
</g>
<!-- ../public/img/index/palau.png -->
<g id="node23" class="node">
<title>../public/img/index/palau.png</title>
<path fill="none" stroke="#cfffac" d="M408.33,-515C408.33,-515 235.67,-515 235.67,-515 231.83,-515 228,-511.17 228,-507.33 228,-507.33 228,-499.67 228,-499.67 228,-495.83 231.83,-492 235.67,-492 235.67,-492 408.33,-492 408.33,-492 412.17,-492 416,-495.83 416,-499.67 416,-499.67 416,-507.33 416,-507.33 416,-511.17 412.17,-515 408.33,-515"/>
<text text-anchor="middle" x="322" y="-499.8" font-family="Arial" font-size="14.00" fill="#cfffac">../public/img/index/palau.png</text>
</g>
<!-- ../public/img/index/philippines.png -->
<g id="node24" class="node">
<title>../public/img/index/philippines.png</title>
<path fill="none" stroke="#cfffac" d="M423.83,-474C423.83,-474 220.17,-474 220.17,-474 216.33,-474 212.5,-470.17 212.5,-466.33 212.5,-466.33 212.5,-458.67 212.5,-458.67 212.5,-454.83 216.33,-451 220.17,-451 220.17,-451 423.83,-451 423.83,-451 427.67,-451 431.5,-454.83 431.5,-458.67 431.5,-458.67 431.5,-466.33 431.5,-466.33 431.5,-470.17 427.67,-474 423.83,-474"/>
<text text-anchor="middle" x="322" y="-458.8" font-family="Arial" font-size="14.00" fill="#cfffac">../public/img/index/philippines.png</text>
</g>
<!-- ../public/img/index/recital&#45;poster.jpg -->
<g id="node25" class="node">
<title>../public/img/index/recital&#45;poster.jpg</title>
<path fill="none" stroke="#cfffac" d="M428.33,-433C428.33,-433 215.67,-433 215.67,-433 211.83,-433 208,-429.17 208,-425.33 208,-425.33 208,-417.67 208,-417.67 208,-413.83 211.83,-410 215.67,-410 215.67,-410 428.33,-410 428.33,-410 432.17,-410 436,-413.83 436,-417.67 436,-417.67 436,-425.33 436,-425.33 436,-429.17 432.17,-433 428.33,-433"/>
<text text-anchor="middle" x="322" y="-417.8" font-family="Arial" font-size="14.00" fill="#cfffac">../public/img/index/recital&#45;poster.jpg</text>
</g>
<!-- ../public/img/index/south&#45;korea.png -->
<g id="node26" class="node">
<title>../public/img/index/south&#45;korea.png</title>
<path fill="none" stroke="#cfffac" d="M427.83,-392C427.83,-392 216.17,-392 216.17,-392 212.33,-392 208.5,-388.17 208.5,-384.33 208.5,-384.33 208.5,-376.67 208.5,-376.67 208.5,-372.83 212.33,-369 216.17,-369 216.17,-369 427.83,-369 427.83,-369 431.67,-369 435.5,-372.83 435.5,-376.67 435.5,-376.67 435.5,-384.33 435.5,-384.33 435.5,-388.17 431.67,-392 427.83,-392"/>
<text text-anchor="middle" x="322" y="-376.8" font-family="Arial" font-size="14.00" fill="#cfffac">../public/img/index/south&#45;korea.png</text>
</g>
<!-- ../public/img/index/travel&#45;1.jpg -->
<g id="node27" class="node">
<title>../public/img/index/travel&#45;1.jpg</title>
<path fill="none" stroke="#cfffac" d="M412.33,-351C412.33,-351 231.67,-351 231.67,-351 227.83,-351 224,-347.17 224,-343.33 224,-343.33 224,-335.67 224,-335.67 224,-331.83 227.83,-328 231.67,-328 231.67,-328 412.33,-328 412.33,-328 416.17,-328 420,-331.83 420,-335.67 420,-335.67 420,-343.33 420,-343.33 420,-347.17 416.17,-351 412.33,-351"/>
<text text-anchor="middle" x="322" y="-335.8" font-family="Arial" font-size="14.00" fill="#cfffac">../public/img/index/travel&#45;1.jpg</text>
</g>
<!-- ../public/img/index/travel&#45;2.jpg -->
<g id="node28" class="node">
<title>../public/img/index/travel&#45;2.jpg</title>
<path fill="none" stroke="#cfffac" d="M412.33,-310C412.33,-310 231.67,-310 231.67,-310 227.83,-310 224,-306.17 224,-302.33 224,-302.33 224,-294.67 224,-294.67 224,-290.83 227.83,-287 231.67,-287 231.67,-287 412.33,-287 412.33,-287 416.17,-287 420,-290.83 420,-294.67 420,-294.67 420,-302.33 420,-302.33 420,-306.17 416.17,-310 412.33,-310"/>
<text text-anchor="middle" x="322" y="-294.8" font-family="Arial" font-size="14.00" fill="#cfffac">../public/img/index/travel&#45;2.jpg</text>
</g>
<!-- ../public/img/index/travel&#45;3.jpg -->
<g id="node29" class="node">
<title>../public/img/index/travel&#45;3.jpg</title>
<path fill="none" stroke="#cfffac" d="M412.33,-269C412.33,-269 231.67,-269 231.67,-269 227.83,-269 224,-265.17 224,-261.33 224,-261.33 224,-253.67 224,-253.67 224,-249.83 227.83,-246 231.67,-246 231.67,-246 412.33,-246 412.33,-246 416.17,-246 420,-249.83 420,-253.67 420,-253.67 420,-261.33 420,-261.33 420,-265.17 416.17,-269 412.33,-269"/>
<text text-anchor="middle" x="322" y="-253.8" font-family="Arial" font-size="14.00" fill="#cfffac">../public/img/index/travel&#45;3.jpg</text>
</g>
<!-- ../public/img/index/travel&#45;4.jpg -->
<g id="node30" class="node">
<title>../public/img/index/travel&#45;4.jpg</title>
<path fill="none" stroke="#cfffac" d="M412.33,-228C412.33,-228 231.67,-228 231.67,-228 227.83,-228 224,-224.17 224,-220.33 224,-220.33 224,-212.67 224,-212.67 224,-208.83 227.83,-205 231.67,-205 231.67,-205 412.33,-205 412.33,-205 416.17,-205 420,-208.83 420,-212.67 420,-212.67 420,-220.33 420,-220.33 420,-224.17 416.17,-228 412.33,-228"/>
<text text-anchor="middle" x="322" y="-212.8" font-family="Arial" font-size="14.00" fill="#cfffac">../public/img/index/travel&#45;4.jpg</text>
</g>
<!-- ../public/img/index/travel&#45;5.jpg -->
<g id="node31" class="node">
<title>../public/img/index/travel&#45;5.jpg</title>
<path fill="none" stroke="#cfffac" d="M412.33,-187C412.33,-187 231.67,-187 231.67,-187 227.83,-187 224,-183.17 224,-179.33 224,-179.33 224,-171.67 224,-171.67 224,-167.83 227.83,-164 231.67,-164 231.67,-164 412.33,-164 412.33,-164 416.17,-164 420,-167.83 420,-171.67 420,-171.67 420,-179.33 420,-179.33 420,-183.17 416.17,-187 412.33,-187"/>
<text text-anchor="middle" x="322" y="-171.8" font-family="Arial" font-size="14.00" fill="#cfffac">../public/img/index/travel&#45;5.jpg</text>
</g>
<!-- ../public/img/index/united&#45;states&#45;of&#45;america.png -->
<g id="node32" class="node">
<title>../public/img/index/united&#45;states&#45;of&#45;america.png</title>
<path fill="none" stroke="#cfffac" d="M465.33,-146C465.33,-146 178.67,-146 178.67,-146 174.83,-146 171,-142.17 171,-138.33 171,-138.33 171,-130.67 171,-130.67 171,-126.83 174.83,-123 178.67,-123 178.67,-123 465.33,-123 465.33,-123 469.17,-123 473,-126.83 473,-130.67 473,-130.67 473,-138.33 473,-138.33 473,-142.17 469.17,-146 465.33,-146"/>
<text text-anchor="middle" x="322" y="-130.8" font-family="Arial" font-size="14.00" fill="#cfffac">../public/img/index/united&#45;states&#45;of&#45;america.png</text>
</g>
<!-- ../styles/globals.css -->
<g id="node33" class="node">
<title>../styles/globals.css</title>
<path fill="none" stroke="#cfffac" d="M380.83,-23C380.83,-23 263.17,-23 263.17,-23 259.33,-23 255.5,-19.17 255.5,-15.33 255.5,-15.33 255.5,-7.67 255.5,-7.67 255.5,-3.83 259.33,0 263.17,0 263.17,0 380.83,0 380.83,0 384.67,0 388.5,-3.83 388.5,-7.67 388.5,-7.67 388.5,-15.33 388.5,-15.33 388.5,-19.17 384.67,-23 380.83,-23"/>
<text text-anchor="middle" x="322" y="-7.8" font-family="Arial" font-size="14.00" fill="#cfffac">../styles/globals.css</text>
</g>
<!-- _app.js -->
<g id="node34" class="node">
<title>_app.js</title>
<path fill="none" stroke="#c6c5fe" d="M89.83,-64C89.83,-64 45.17,-64 45.17,-64 41.33,-64 37.5,-60.17 37.5,-56.33 37.5,-56.33 37.5,-48.67 37.5,-48.67 37.5,-44.83 41.33,-41 45.17,-41 45.17,-41 89.83,-41 89.83,-41 93.67,-41 97.5,-44.83 97.5,-48.67 97.5,-48.67 97.5,-56.33 97.5,-56.33 97.5,-60.17 93.67,-64 89.83,-64"/>
<text text-anchor="middle" x="67.5" y="-48.8" font-family="Arial" font-size="14.00" fill="#c6c5fe">_app.js</text>
</g>
<!-- _app.js&#45;&gt;../google&#45;analytics.js -->
<g id="edge8" class="edge">
<title>_app.js&#45;&gt;../google&#45;analytics.js</title>
<path fill="none" stroke="#757575" d="M97.96,-52.5C133.06,-52.5 193.1,-52.5 242.06,-52.5"/>
<polygon fill="#757575" stroke="#757575" points="242.32,-56 252.32,-52.5 242.32,-49 242.32,-56"/>
</g>
<!-- _app.js&#45;&gt;../public/img/index/me.jpg -->
<g id="edge9" class="edge">
<title>_app.js&#45;&gt;../public/img/index/me.jpg</title>
<path fill="none" stroke="#757575" d="M97.58,-58.61C118.06,-62.8 146.14,-68.34 171,-72.5 189.03,-75.52 208.32,-78.45 226.87,-81.11"/>
<polygon fill="#757575" stroke="#757575" points="226.39,-84.58 236.78,-82.52 227.38,-77.65 226.39,-84.58"/>
</g>
<!-- _app.js&#45;&gt;../styles/globals.css -->
<g id="edge10" class="edge">
<title>_app.js&#45;&gt;../styles/globals.css</title>
<path fill="none" stroke="#757575" d="M97.56,-45.99C118.02,-41.53 146.1,-35.7 171,-31.5 195.03,-27.44 221.33,-23.7 245.11,-20.58"/>
<polygon fill="#757575" stroke="#757575" points="245.67,-24.03 255.14,-19.28 244.77,-17.09 245.67,-24.03"/>
</g>
<!-- _document.js -->
<g id="node35" class="node">
<title>_document.js</title>
<path fill="none" stroke="#cfffac" d="M108.83,-1087C108.83,-1087 26.17,-1087 26.17,-1087 22.33,-1087 18.5,-1083.17 18.5,-1079.33 18.5,-1079.33 18.5,-1071.67 18.5,-1071.67 18.5,-1067.83 22.33,-1064 26.17,-1064 26.17,-1064 108.83,-1064 108.83,-1064 112.67,-1064 116.5,-1067.83 116.5,-1071.67 116.5,-1071.67 116.5,-1079.33 116.5,-1079.33 116.5,-1083.17 112.67,-1087 108.83,-1087"/>
<text text-anchor="middle" x="67.5" y="-1071.8" font-family="Arial" font-size="14.00" fill="#cfffac">_document.js</text>
</g>
<!-- about.js -->
<g id="node36" class="node">
<title>about.js</title>
<path fill="none" stroke="#c6c5fe" d="M91.83,-841C91.83,-841 43.17,-841 43.17,-841 39.33,-841 35.5,-837.17 35.5,-833.33 35.5,-833.33 35.5,-825.67 35.5,-825.67 35.5,-821.83 39.33,-818 43.17,-818 43.17,-818 91.83,-818 91.83,-818 95.67,-818 99.5,-821.83 99.5,-825.67 99.5,-825.67 99.5,-833.33 99.5,-833.33 99.5,-837.17 95.67,-841 91.83,-841"/>
<text text-anchor="middle" x="67.5" y="-825.8" font-family="Arial" font-size="14.00" fill="#c6c5fe">about.js</text>
</g>
<!-- about.js&#45;&gt;../components/Footer.js -->
<g id="edge11" class="edge">
<title>about.js&#45;&gt;../components/Footer.js</title>
<path fill="none" stroke="#757575" d="M99.54,-834.96C111.3,-837.99 124.39,-842.59 135,-849.5 155.6,-862.91 149.39,-879.77 171,-891.5 189.74,-901.67 211.67,-907.4 232.88,-910.49"/>
<polygon fill="#757575" stroke="#757575" points="232.53,-913.97 242.89,-911.76 233.42,-907.03 232.53,-913.97"/>
</g>
<!-- about.js&#45;&gt;../components/Navbar.js -->
<g id="edge12" class="edge">
<title>about.js&#45;&gt;../components/Navbar.js</title>
<path fill="none" stroke="#757575" d="M99.82,-836.06C120.08,-840.2 147.04,-845.49 171,-849.5 190.3,-852.73 211.06,-855.86 230.79,-858.67"/>
<polygon fill="#757575" stroke="#757575" points="230.31,-862.14 240.7,-860.07 231.28,-855.2 230.31,-862.14"/>
</g>
<!-- about.js&#45;&gt;../public/img/about/selfie.jpg -->
<g id="edge13" class="edge">
<title>about.js&#45;&gt;../public/img/about/selfie.jpg</title>
<path fill="none" stroke="#757575" d="M83.13,-817.94C102.18,-803.56 137.06,-779.44 171,-767.5 186.39,-762.08 203.15,-758.12 219.69,-755.22"/>
<polygon fill="#757575" stroke="#757575" points="220.65,-758.61 229.96,-753.55 219.52,-751.7 220.65,-758.61"/>
</g>
<!-- food/posts.js -->
<g id="node37" class="node">
<title>food/posts.js</title>
<path fill="none" stroke="#c6c5fe" d="M105.83,-1005C105.83,-1005 29.17,-1005 29.17,-1005 25.33,-1005 21.5,-1001.17 21.5,-997.33 21.5,-997.33 21.5,-989.67 21.5,-989.67 21.5,-985.83 25.33,-982 29.17,-982 29.17,-982 105.83,-982 105.83,-982 109.67,-982 113.5,-985.83 113.5,-989.67 113.5,-989.67 113.5,-997.33 113.5,-997.33 113.5,-1001.17 109.67,-1005 105.83,-1005"/>
<text text-anchor="middle" x="67.5" y="-989.8" font-family="Arial" font-size="14.00" fill="#c6c5fe">food/posts.js</text>
</g>
<!-- food/posts.js&#45;&gt;../components/Dropdown.js -->
<g id="edge14" class="edge">
<title>food/posts.js&#45;&gt;../components/Dropdown.js</title>
<path fill="none" stroke="#757575" d="M113.81,-1002.12C121.49,-1005.1 128.94,-1009.11 135,-1014.5 164.13,-1040.41 139.73,-1071.21 171,-1094.5 185.58,-1105.36 203.23,-1111.81 221.23,-1115.44"/>
<polygon fill="#757575" stroke="#757575" points="220.8,-1118.92 231.25,-1117.18 222,-1112.02 220.8,-1118.92"/>
</g>
<!-- food/posts.js&#45;&gt;../components/Footer.js -->
<g id="edge15" class="edge">
<title>food/posts.js&#45;&gt;../components/Footer.js</title>
<path fill="none" stroke="#757575" d="M113.66,-983.66C121.11,-981.01 128.51,-977.67 135,-973.5 155.4,-960.39 149.66,-944.01 171,-932.5 189.78,-922.37 211.73,-916.55 232.94,-913.33"/>
<polygon fill="#757575" stroke="#757575" points="233.51,-916.79 242.96,-911.99 232.58,-909.85 233.51,-916.79"/>
</g>
<!-- food/posts.js&#45;&gt;../hooks/useWindowWidth.js -->
<g id="edge18" class="edge">
<title>food/posts.js&#45;&gt;../hooks/useWindowWidth.js</title>
<path fill="none" stroke="#757575" d="M110.72,-1005.02C185.61,-1023.44 345.81,-1053.64 473,-1014.5 526.72,-997.97 578.47,-955.18 605.37,-930.26"/>
<polygon fill="#757575" stroke="#757575" points="608.03,-932.56 612.89,-923.15 603.22,-927.47 608.03,-932.56"/>
</g>
<!-- food/posts.js&#45;&gt;../components/Navbar.js -->
<g id="edge16" class="edge">
<title>food/posts.js&#45;&gt;../components/Navbar.js</title>
<path fill="none" stroke="#757575" d="M113.83,-985.65C121.51,-982.78 128.95,-978.85 135,-973.5 164.8,-947.12 139.27,-915.53 171,-891.5 188.1,-878.55 209.54,-871.72 230.81,-868.43"/>
<polygon fill="#757575" stroke="#757575" points="231.42,-871.88 240.88,-867.12 230.51,-864.94 231.42,-871.88"/>
</g>
<!-- food/posts.js&#45;&gt;../components/PostList.js -->
<g id="edge17" class="edge">
<title>food/posts.js&#45;&gt;../components/PostList.js</title>
<path fill="none" stroke="#757575" d="M113.64,-1004.8C121.01,-1007.47 128.4,-1010.68 135,-1014.5 153.79,-1025.36 151.52,-1037.93 171,-1047.5 188.65,-1056.18 208.72,-1062.01 228.31,-1065.91"/>
<polygon fill="#757575" stroke="#757575" points="227.71,-1069.36 238.18,-1067.73 228.98,-1062.47 227.71,-1069.36"/>
</g>
<!-- food/posts.js&#45;&gt;../posts/posts.js -->
<g id="edge19" class="edge">
<title>food/posts.js&#45;&gt;../posts/posts.js</title>
<path fill="none" stroke="#757575" d="M113.64,-993.5C153.39,-993.5 211.72,-993.5 256.41,-993.5"/>
<polygon fill="#757575" stroke="#757575" points="256.59,-997 266.59,-993.5 256.59,-990 256.59,-997"/>
</g>
<!-- food/posts/[slug].js -->
<g id="node38" class="node">
<title>food/posts/[slug].js</title>
<path fill="none" stroke="#c6c5fe" d="M123.83,-882C123.83,-882 11.17,-882 11.17,-882 7.33,-882 3.5,-878.17 3.5,-874.33 3.5,-874.33 3.5,-866.67 3.5,-866.67 3.5,-862.83 7.33,-859 11.17,-859 11.17,-859 123.83,-859 123.83,-859 127.67,-859 131.5,-862.83 131.5,-866.67 131.5,-866.67 131.5,-874.33 131.5,-874.33 131.5,-878.17 127.67,-882 123.83,-882"/>
<text text-anchor="middle" x="67.5" y="-866.8" font-family="Arial" font-size="14.00" fill="#c6c5fe">food/posts/[slug].js</text>
</g>
<!-- food/posts/[slug].js&#45;&gt;../components/Carousel.js -->
<g id="edge20" class="edge">
<title>food/posts/[slug].js&#45;&gt;../components/Carousel.js</title>
<path fill="none" stroke="#757575" d="M121.3,-858.95C137.23,-855.66 154.79,-852.24 171,-849.5 188.49,-846.55 207.18,-843.76 225.23,-841.26"/>
<polygon fill="#757575" stroke="#757575" points="225.74,-844.72 235.18,-839.9 224.79,-837.78 225.74,-844.72"/>
</g>
<!-- food/posts/[slug].js&#45;&gt;../components/Footer.js -->
<g id="edge21" class="edge">
<title>food/posts/[slug].js&#45;&gt;../components/Footer.js</title>
<path fill="none" stroke="#757575" d="M121.3,-882.05C137.23,-885.34 154.79,-888.76 171,-891.5 191.04,-894.88 212.66,-898.05 233.08,-900.82"/>
<polygon fill="#757575" stroke="#757575" points="232.62,-904.29 242.99,-902.14 233.54,-897.35 232.62,-904.29"/>
</g>
<!-- food/posts/[slug].js&#45;&gt;../components/Navbar.js -->
<g id="edge22" class="edge">
<title>food/posts/[slug].js&#45;&gt;../components/Navbar.js</title>
<path fill="none" stroke="#757575" d="M131.57,-870.5C161.48,-870.5 197.78,-870.5 230.56,-870.5"/>
<polygon fill="#757575" stroke="#757575" points="230.61,-874 240.61,-870.5 230.61,-867 230.61,-874"/>
</g>
<!-- food/posts/[slug].js&#45;&gt;../posts/foodposts&#45;handler.js -->
<g id="edge23" class="edge">
<title>food/posts/[slug].js&#45;&gt;../posts/foodposts&#45;handler.js</title>
<path fill="none" stroke="#757575" d="M116.1,-859C122.72,-856.4 129.22,-853.27 135,-849.5 155.31,-836.25 149.62,-819.94 171,-808.5 185.81,-800.57 202.59,-795.36 219.41,-791.99"/>
<polygon fill="#757575" stroke="#757575" points="220.09,-795.43 229.31,-790.22 218.85,-788.54 220.09,-795.43"/>
</g>
<!-- food/posts/[slug].js&#45;&gt;../posts/posts.js -->
<g id="edge24" class="edge">
<title>food/posts/[slug].js&#45;&gt;../posts/posts.js</title>
<path fill="none" stroke="#757575" d="M120.63,-882.04C125.84,-884.59 130.77,-887.7 135,-891.5 164.62,-918.09 139.19,-949.58 171,-973.5 195.12,-991.64 227.81,-997.53 256.51,-998.51"/>
<polygon fill="#757575" stroke="#757575" points="256.83,-1002.01 266.88,-998.66 256.93,-995.01 256.83,-1002.01"/>
</g>
<!-- index.js -->
<g id="node39" class="node">
<title>index.js</title>
<path fill="none" stroke="#c6c5fe" d="M90.83,-453C90.83,-453 44.17,-453 44.17,-453 40.33,-453 36.5,-449.17 36.5,-445.33 36.5,-445.33 36.5,-437.67 36.5,-437.67 36.5,-433.83 40.33,-430 44.17,-430 44.17,-430 90.83,-430 90.83,-430 94.67,-430 98.5,-433.83 98.5,-437.67 98.5,-437.67 98.5,-445.33 98.5,-445.33 98.5,-449.17 94.67,-453 90.83,-453"/>
<text text-anchor="middle" x="67.5" y="-437.8" font-family="Arial" font-size="14.00" fill="#c6c5fe">index.js</text>
</g>
<!-- index.js&#45;&gt;../components/Footer.js -->
<g id="edge25" class="edge">
<title>index.js&#45;&gt;../components/Footer.js</title>
<path fill="none" stroke="#757575" d="M70.33,-453.08C81.11,-520.48 136.89,-860.38 171,-891.5 187.74,-906.77 210.22,-914.02 232.68,-916.93"/>
<polygon fill="#757575" stroke="#757575" points="232.32,-920.41 242.63,-917.94 233.03,-913.45 232.32,-920.41"/>
</g>
<!-- index.js&#45;&gt;../hooks/useWindowWidth.js -->
<g id="edge28" class="edge">
<title>index.js&#45;&gt;../hooks/useWindowWidth.js</title>
<path fill="none" stroke="#757575" d="M69.41,-453.2C73.21,-493.41 91.58,-626.84 171,-687.5 278.56,-769.64 373.26,-635.02 473,-726.5 528.32,-777.23 454.79,-839.59 509,-891.5 513.13,-895.46 517.75,-898.79 522.7,-901.58"/>
<polygon fill="#757575" stroke="#757575" points="521.41,-904.84 531.93,-906.04 524.45,-898.54 521.41,-904.84"/>
</g>
<!-- index.js&#45;&gt;../components/HeroBanner.js -->
<g id="edge26" class="edge">
<title>index.js&#45;&gt;../components/HeroBanner.js</title>
<path fill="none" stroke="#757575" d="M70.47,-453.22C77.16,-488.99 102.5,-597.27 171,-646.5 184.35,-656.09 200.13,-662.26 216.35,-666.09"/>
<polygon fill="#757575" stroke="#757575" points="215.99,-669.59 226.49,-668.18 217.4,-662.73 215.99,-669.59"/>
</g>
<!-- index.js&#45;&gt;../components/Navbar.js -->
<g id="edge27" class="edge">
<title>index.js&#45;&gt;../components/Navbar.js</title>
<path fill="none" stroke="#757575" d="M69.69,-453.08C76.15,-513.7 109.06,-793.86 171,-849.5 187.37,-864.21 209.07,-871.54 230.86,-874.75"/>
<polygon fill="#757575" stroke="#757575" points="230.51,-878.24 240.86,-875.95 231.34,-871.29 230.51,-878.24"/>
</g>
<!-- index.js&#45;&gt;../public/img/index/canada.png -->
<g id="edge29" class="edge">
<title>index.js&#45;&gt;../public/img/index/canada.png</title>
<path fill="none" stroke="#757575" d="M71.92,-453.07C81.66,-483.79 112.7,-567.66 171,-605.5 183.28,-613.47 197.3,-618.96 211.74,-622.68"/>
<polygon fill="#757575" stroke="#757575" points="211.26,-626.16 221.79,-624.99 212.82,-619.34 211.26,-626.16"/>
</g>
<!-- index.js&#45;&gt;../public/img/index/guam.png -->
<g id="edge30" class="edge">
<title>index.js&#45;&gt;../public/img/index/guam.png</title>
<path fill="none" stroke="#757575" d="M74.29,-453.08C87.54,-478.2 122.66,-537.61 171,-564.5 184.99,-572.28 200.8,-577.55 216.79,-581.06"/>
<polygon fill="#757575" stroke="#757575" points="216.26,-584.52 226.75,-583.02 217.61,-577.65 216.26,-584.52"/>
</g>
<!-- index.js&#45;&gt;../public/img/index/japan.png -->
<g id="edge31" class="edge">
<title>index.js&#45;&gt;../public/img/index/japan.png</title>
<path fill="none" stroke="#757575" d="M78.85,-453.07C96,-471.42 132.28,-506.81 171,-523.5 185.6,-529.79 201.67,-534.28 217.7,-537.47"/>
<polygon fill="#757575" stroke="#757575" points="217.19,-540.94 227.66,-539.3 218.45,-534.05 217.19,-540.94"/>
</g>
<!-- index.js&#45;&gt;../public/img/index/me.jpg -->
<g id="edge32" class="edge">
<title>index.js&#45;&gt;../public/img/index/me.jpg</title>
<path fill="none" stroke="#757575" d="M68.08,-429.87C67.03,-382 69.95,-198.66 171,-113.5 186.62,-100.33 206.6,-93.32 226.84,-89.94"/>
<polygon fill="#757575" stroke="#757575" points="227.36,-93.4 236.78,-88.56 226.39,-86.47 227.36,-93.4"/>
</g>
<!-- index.js&#45;&gt;../public/img/index/palau.png -->
<g id="edge33" class="edge">
<title>index.js&#45;&gt;../public/img/index/palau.png</title>
<path fill="none" stroke="#757575" d="M92.79,-453.16C113.21,-462.48 143.4,-475.16 171,-482.5 185.91,-486.46 201.85,-489.71 217.59,-492.37"/>
<polygon fill="#757575" stroke="#757575" points="217.45,-495.89 227.88,-494.03 218.57,-488.98 217.45,-495.89"/>
</g>
<!-- index.js&#45;&gt;../public/img/index/philippines.png -->
<g id="edge34" class="edge">
<title>index.js&#45;&gt;../public/img/index/philippines.png</title>
<path fill="none" stroke="#757575" d="M98.71,-444.01C124.66,-446.17 163.85,-449.43 202.13,-452.61"/>
<polygon fill="#757575" stroke="#757575" points="202.11,-456.12 212.37,-453.47 202.69,-449.15 202.11,-456.12"/>
</g>
<!-- index.js&#45;&gt;../public/img/index/recital&#45;poster.jpg -->
<g id="edge35" class="edge">
<title>index.js&#45;&gt;../public/img/index/recital&#45;poster.jpg</title>
<path fill="none" stroke="#757575" d="M98.71,-439.11C123.59,-437.14 160.65,-434.2 197.41,-431.29"/>
<polygon fill="#757575" stroke="#757575" points="198.06,-434.75 207.76,-430.47 197.51,-427.77 198.06,-434.75"/>
</g>
<!-- index.js&#45;&gt;../public/img/index/south&#45;korea.png -->
<g id="edge36" class="edge">
<title>index.js&#45;&gt;../public/img/index/south&#45;korea.png</title>
<path fill="none" stroke="#757575" d="M92.36,-429.98C112.78,-420.62 143.19,-407.79 171,-400.5 180.53,-398 190.49,-395.8 200.54,-393.88"/>
<polygon fill="#757575" stroke="#757575" points="201.41,-397.28 210.61,-392.03 200.15,-390.39 201.41,-397.28"/>
</g>
<!-- index.js&#45;&gt;../public/img/index/travel&#45;1.jpg -->
<g id="edge37" class="edge">
<title>index.js&#45;&gt;../public/img/index/travel&#45;1.jpg</title>
<path fill="none" stroke="#757575" d="M78.83,-429.9C95.97,-411.51 132.23,-376.06 171,-359.5 184.35,-353.8 198.92,-349.63 213.57,-346.59"/>
<polygon fill="#757575" stroke="#757575" points="214.54,-349.97 223.71,-344.66 213.23,-343.09 214.54,-349.97"/>
</g>
<!-- index.js&#45;&gt;../public/img/index/travel&#45;2.jpg -->
<g id="edge38" class="edge">
<title>index.js&#45;&gt;../public/img/index/travel&#45;2.jpg</title>
<path fill="none" stroke="#757575" d="M74.28,-429.9C87.5,-404.73 122.57,-345.23 171,-318.5 184.11,-311.26 198.83,-306.26 213.77,-302.85"/>
<polygon fill="#757575" stroke="#757575" points="214.52,-306.27 223.62,-300.83 213.12,-299.41 214.52,-306.27"/>
</g>
<!-- index.js&#45;&gt;../public/img/index/travel&#45;3.jpg -->
<g id="edge39" class="edge">
<title>index.js&#45;&gt;../public/img/index/travel&#45;3.jpg</title>
<path fill="none" stroke="#757575" d="M71.91,-429.91C81.62,-399.14 112.58,-315.14 171,-277.5 183.86,-269.21 198.64,-263.66 213.79,-260.03"/>
<polygon fill="#757575" stroke="#757575" points="214.72,-263.41 223.78,-257.91 213.27,-256.56 214.72,-263.41"/>
</g>
<!-- index.js&#45;&gt;../public/img/index/travel&#45;4.jpg -->
<g id="edge40" class="edge">
<title>index.js&#45;&gt;../public/img/index/travel&#45;4.jpg</title>
<path fill="none" stroke="#757575" d="M70.46,-429.76C77.1,-393.93 102.34,-285.5 171,-236.5 183.63,-227.49 198.42,-221.57 213.69,-217.79"/>
<polygon fill="#757575" stroke="#757575" points="214.75,-221.15 223.78,-215.61 213.27,-214.3 214.75,-221.15"/>
</g>
<!-- index.js&#45;&gt;../public/img/index/travel&#45;5.jpg -->
<g id="edge41" class="edge">
<title>index.js&#45;&gt;../public/img/index/travel&#45;5.jpg</title>
<path fill="none" stroke="#757575" d="M69.42,-429.81C73.25,-389.64 91.7,-256.32 171,-195.5 183.48,-185.93 198.33,-179.74 213.76,-175.87"/>
<polygon fill="#757575" stroke="#757575" points="214.94,-179.2 223.96,-173.66 213.45,-172.36 214.94,-179.2"/>
</g>
<!-- index.js&#45;&gt;../public/img/index/united&#45;states&#45;of&#45;america.png -->
<g id="edge42" class="edge">
<title>index.js&#45;&gt;../public/img/index/united&#45;states&#45;of&#45;america.png</title>
<path fill="none" stroke="#757575" d="M68.66,-429.81C69.95,-385.6 80.91,-227.37 171,-154.5 172.21,-153.52 173.45,-152.57 174.71,-151.66"/>
<polygon fill="#757575" stroke="#757575" points="176.82,-154.47 183.33,-146.11 173.03,-148.58 176.82,-154.47"/>
</g>
<!-- recital.js -->
<g id="node40" class="node">
<title>recital.js</title>
<path fill="none" stroke="#c6c5fe" d="M92.83,-923C92.83,-923 42.17,-923 42.17,-923 38.33,-923 34.5,-919.17 34.5,-915.33 34.5,-915.33 34.5,-907.67 34.5,-907.67 34.5,-903.83 38.33,-900 42.17,-900 42.17,-900 92.83,-900 92.83,-900 96.67,-900 100.5,-903.83 100.5,-907.67 100.5,-907.67 100.5,-915.33 100.5,-915.33 100.5,-919.17 96.67,-923 92.83,-923"/>
<text text-anchor="middle" x="67.5" y="-907.8" font-family="Arial" font-size="14.00" fill="#c6c5fe">recital.js</text>
</g>
<!-- recital.js&#45;&gt;../components/Footer.js -->
<g id="edge43" class="edge">
<title>recital.js&#45;&gt;../components/Footer.js</title>
<path fill="none" stroke="#757575" d="M100.74,-911.5C133.86,-911.5 186.91,-911.5 232.64,-911.5"/>
<polygon fill="#757575" stroke="#757575" points="232.88,-915 242.88,-911.5 232.88,-908 232.88,-915"/>
</g>
<!-- recital.js&#45;&gt;../components/Navbar.js -->
<g id="edge44" class="edge">
<title>recital.js&#45;&gt;../components/Navbar.js</title>
<path fill="none" stroke="#757575" d="M100.73,-904.75C120.88,-900.65 147.4,-895.45 171,-891.5 190.3,-888.27 211.06,-885.14 230.79,-882.33"/>
<polygon fill="#757575" stroke="#757575" points="231.28,-885.8 240.7,-880.93 230.31,-878.86 231.28,-885.8"/>
</g>
<!-- travel/posts.js -->
<g id="node41" class="node">
<title>travel/posts.js</title>
<path fill="none" stroke="#c6c5fe" d="M109.33,-964C109.33,-964 25.67,-964 25.67,-964 21.83,-964 18,-960.17 18,-956.33 18,-956.33 18,-948.67 18,-948.67 18,-944.83 21.83,-941 25.67,-941 25.67,-941 109.33,-941 109.33,-941 113.17,-941 117,-944.83 117,-948.67 117,-948.67 117,-956.33 117,-956.33 117,-960.17 113.17,-964 109.33,-964"/>
<text text-anchor="middle" x="67.5" y="-948.8" font-family="Arial" font-size="14.00" fill="#c6c5fe">travel/posts.js</text>
</g>
<!-- travel/posts.js&#45;&gt;../components/Footer.js -->
<g id="edge45" class="edge">
<title>travel/posts.js&#45;&gt;../components/Footer.js</title>
<path fill="none" stroke="#757575" d="M117.15,-942.45C134.15,-939.09 153.39,-935.45 171,-932.5 190.86,-929.18 212.25,-925.96 232.49,-923.09"/>
<polygon fill="#757575" stroke="#757575" points="233.22,-926.52 242.64,-921.66 232.25,-919.59 233.22,-926.52"/>
</g>
<!-- travel/posts.js&#45;&gt;../components/Navbar.js -->
<g id="edge46" class="edge">
<title>travel/posts.js&#45;&gt;../components/Navbar.js</title>
<path fill="none" stroke="#757575" d="M117.14,-941.37C123.4,-938.94 129.52,-936.02 135,-932.5 155.4,-919.39 149.66,-903.01 171,-891.5 189.1,-881.74 210.14,-875.98 230.63,-872.69"/>
<polygon fill="#757575" stroke="#757575" points="231.23,-876.14 240.63,-871.27 230.24,-869.21 231.23,-876.14"/>
</g>
<!-- travel/posts.js&#45;&gt;../components/PostCard.js -->
<g id="edge47" class="edge">
<title>travel/posts.js&#45;&gt;../components/PostCard.js</title>
<path fill="none" stroke="#757575" d="M117.18,-952.5C147.38,-952.5 187.24,-952.5 223.69,-952.5"/>
<polygon fill="#757575" stroke="#757575" points="223.87,-956 233.87,-952.5 223.87,-949 223.87,-956"/>
</g>
<!-- travel/posts.js&#45;&gt;../posts/posts.js -->
<g id="edge48" class="edge">
<title>travel/posts.js&#45;&gt;../posts/posts.js</title>
<path fill="none" stroke="#757575" d="M117.12,-963.18C134.12,-966.72 153.36,-970.52 171,-973.5 199.02,-978.23 230.15,-982.54 256.75,-985.93"/>
<polygon fill="#757575" stroke="#757575" points="256.35,-989.41 266.71,-987.18 257.22,-982.46 256.35,-989.41"/>
</g>
<!-- travel/posts/[slug].js -->
<g id="node42" class="node">
<title>travel/posts/[slug].js</title>
<path fill="none" stroke="#c6c5fe" d="M127.33,-1046C127.33,-1046 7.67,-1046 7.67,-1046 3.83,-1046 0,-1042.17 0,-1038.33 0,-1038.33 0,-1030.67 0,-1030.67 0,-1026.83 3.83,-1023 7.67,-1023 7.67,-1023 127.33,-1023 127.33,-1023 131.17,-1023 135,-1026.83 135,-1030.67 135,-1030.67 135,-1038.33 135,-1038.33 135,-1042.17 131.17,-1046 127.33,-1046"/>
<text text-anchor="middle" x="67.5" y="-1030.8" font-family="Arial" font-size="14.00" fill="#c6c5fe">travel/posts/[slug].js</text>
</g>
<!-- travel/posts/[slug].js&#45;&gt;../components/AdInPost.js -->
<g id="edge49" class="edge">
<title>travel/posts/[slug].js&#45;&gt;../components/AdInPost.js</title>
<path fill="none" stroke="#757575" d="M122.1,-1046.04C126.85,-1048.59 131.26,-1051.7 135,-1055.5 174.34,-1095.5 128.34,-1140.05 171,-1176.5 186.04,-1189.35 205.2,-1196.37 224.76,-1199.88"/>
<polygon fill="#757575" stroke="#757575" points="224.29,-1203.35 234.7,-1201.37 225.33,-1196.42 224.29,-1203.35"/>
</g>
<!-- travel/posts/[slug].js&#45;&gt;../components/Footer.js -->
<g id="edge50" class="edge">
<title>travel/posts/[slug].js&#45;&gt;../components/Footer.js</title>
<path fill="none" stroke="#757575" d="M122.27,-1022.97C126.87,-1020.65 131.21,-1017.86 135,-1014.5 164.8,-988.12 139.27,-956.53 171,-932.5 188.63,-919.15 210.87,-912.3 232.79,-909.13"/>
<polygon fill="#757575" stroke="#757575" points="233.31,-912.59 242.82,-907.92 232.47,-905.64 233.31,-912.59"/>
</g>
<!-- travel/posts/[slug].js&#45;&gt;../components/Navbar.js -->
<g id="edge51" class="edge">
<title>travel/posts/[slug].js&#45;&gt;../components/Navbar.js</title>
<path fill="none" stroke="#757575" d="M123.7,-1022.94C127.84,-1020.62 131.69,-1017.84 135,-1014.5 175.13,-974.07 127.9,-928.74 171,-891.5 187.56,-877.19 209.22,-869.96 230.9,-866.73"/>
<polygon fill="#757575" stroke="#757575" points="231.34,-870.2 240.85,-865.51 230.49,-863.25 231.34,-870.2"/>
</g>
<!-- travel/posts/[slug].js&#45;&gt;../posts/posts.js -->
<g id="edge52" class="edge">
<title>travel/posts/[slug].js&#45;&gt;../posts/posts.js</title>
<path fill="none" stroke="#757575" d="M135.17,-1023.67C172.7,-1017.58 219.34,-1010.01 256.51,-1003.97"/>
<polygon fill="#757575" stroke="#757575" points="257.42,-1007.37 266.73,-1002.31 256.29,-1000.46 257.42,-1007.37"/>
</g>
<!-- travel/posts/[slug].js&#45;&gt;../posts/travelposts&#45;handler.js -->
<g id="edge53" class="edge">
<title>travel/posts/[slug].js&#45;&gt;../posts/travelposts&#45;handler.js</title>
<path fill="none" stroke="#757575" d="M120.6,-1046.07C125.82,-1048.62 130.75,-1051.72 135,-1055.5 164.13,-1081.41 139.73,-1112.21 171,-1135.5 184.17,-1145.31 199.86,-1151.53 216.04,-1155.31"/>
<polygon fill="#757575" stroke="#757575" points="215.67,-1158.81 226.17,-1157.37 217.06,-1151.95 215.67,-1158.81"/>
</g>
</g>
</svg>
