<?xml version="1.0" encoding="UTF-8" standalone="no"?>
<!DOCTYPE svg PUBLIC "-//W3C//DTD SVG 1.1//EN"
 "http://www.w3.org/Graphics/SVG/1.1/DTD/svg11.dtd">
<!-- Generated by graphviz version 3.0.0 (20220226.1711)
 -->
<!-- Title: G Pages: 1 -->
<svg width="309pt" height="148pt"
 viewBox="0.00 0.00 309.20 148.20" xmlns="http://www.w3.org/2000/svg" xmlns:xlink="http://www.w3.org/1999/xlink">
<g id="graph0" class="graph" transform="scale(1 1) rotate(0) translate(21.6 126.6)">
<title>G</title>
<polygon fill="#111111" stroke="transparent" points="-21.6,21.6 -21.6,-126.6 287.6,-126.6 287.6,21.6 -21.6,21.6"/>
<!-- ../google&#45;analytics.js -->
<g id="node1" class="node">
<title>../google&#45;analytics.js</title>
<path fill="none" stroke="#cfffac" d="M242.83,-105C242.83,-105 119.17,-105 119.17,-105 115.33,-105 111.5,-101.17 111.5,-97.33 111.5,-97.33 111.5,-89.67 111.5,-89.67 111.5,-85.83 115.33,-82 119.17,-82 119.17,-82 242.83,-82 242.83,-82 246.67,-82 250.5,-85.83 250.5,-89.67 250.5,-89.67 250.5,-97.33 250.5,-97.33 250.5,-101.17 246.67,-105 242.83,-105"/>
<text text-anchor="middle" x="181" y="-89.8" font-family="Arial" font-size="14.00" fill="#cfffac">../google&#45;analytics.js</text>
</g>
<!-- ../public/img/index/me.jpg -->
<g id="node2" class="node">
<title>../public/img/index/me.jpg</title>
<path fill="none" stroke="#cfffac" d="M258.33,-64C258.33,-64 103.67,-64 103.67,-64 99.83,-64 96,-60.17 96,-56.33 96,-56.33 96,-48.67 96,-48.67 96,-44.83 99.83,-41 103.67,-41 103.67,-41 258.33,-41 258.33,-41 262.17,-41 266,-44.83 266,-48.67 266,-48.67 266,-56.33 266,-56.33 266,-60.17 262.17,-64 258.33,-64"/>
<text text-anchor="middle" x="181" y="-48.8" font-family="Arial" font-size="14.00" fill="#cfffac">../public/img/index/me.jpg</text>
</g>
<!-- ../styles/globals.css -->
<g id="node3" class="node">
<title>../styles/globals.css</title>
<path fill="none" stroke="#cfffac" d="M239.83,-23C239.83,-23 122.17,-23 122.17,-23 118.33,-23 114.5,-19.17 114.5,-15.33 114.5,-15.33 114.5,-7.67 114.5,-7.67 114.5,-3.83 118.33,0 122.17,0 122.17,0 239.83,0 239.83,0 243.67,0 247.5,-3.83 247.5,-7.67 247.5,-7.67 247.5,-15.33 247.5,-15.33 247.5,-19.17 243.67,-23 239.83,-23"/>
<text text-anchor="middle" x="181" y="-7.8" font-family="Arial" font-size="14.00" fill="#cfffac">../styles/globals.css</text>
</g>
<!-- _app.js -->
<g id="node4" class="node">
<title>_app.js</title>
<path fill="none" stroke="#c6c5fe" d="M52.33,-64C52.33,-64 7.67,-64 7.67,-64 3.83,-64 0,-60.17 0,-56.33 0,-56.33 0,-48.67 0,-48.67 0,-44.83 3.83,-41 7.67,-41 7.67,-41 52.33,-41 52.33,-41 56.17,-41 60,-44.83 60,-48.67 60,-48.67 60,-56.33 60,-56.33 60,-60.17 56.17,-64 52.33,-64"/>
<text text-anchor="middle" x="30" y="-48.8" font-family="Arial" font-size="14.00" fill="#c6c5fe">_app.js</text>
</g>
<!-- _app.js&#45;&gt;../google&#45;analytics.js -->
<g id="edge1" class="edge">
<title>_app.js&#45;&gt;../google&#45;analytics.js</title>
<path fill="none" stroke="#757575" d="M60.3,-62.51C71.42,-66.16 84.24,-70.21 96,-73.5 103.41,-75.58 111.22,-77.62 118.98,-79.57"/>
<polygon fill="#757575" stroke="#757575" points="118.2,-82.98 128.75,-81.98 119.88,-76.19 118.2,-82.98"/>
</g>
<!-- _app.js&#45;&gt;../public/img/index/me.jpg -->
<g id="edge2" class="edge">
<title>_app.js&#45;&gt;../public/img/index/me.jpg</title>
<path fill="none" stroke="#757575" d="M60.08,-52.5C67.79,-52.5 76.56,-52.5 85.75,-52.5"/>
<polygon fill="#757575" stroke="#757575" points="85.87,-56 95.87,-52.5 85.87,-49 85.87,-56"/>
</g>
<!-- _app.js&#45;&gt;../styles/globals.css -->
<g id="edge3" class="edge">
<title>_app.js&#45;&gt;../styles/globals.css</title>
<path fill="none" stroke="#757575" d="M60.02,-43.21C71.23,-39.71 84.17,-35.8 96,-32.5 104.42,-30.15 113.34,-27.79 122.11,-25.54"/>
<polygon fill="#757575" stroke="#757575" points="123.08,-28.91 131.91,-23.05 121.35,-22.12 123.08,-28.91"/>
</g>
</g>
</svg>
