<?xml version="1.0" standalone="no"?>
<!DOCTYPE svg PUBLIC "-//W3C//DTD SVG 20010904//EN"
 "http://www.w3.org/TR/2001/REC-SVG-20010904/DTD/svg10.dtd">
<svg version="1.0" xmlns="http://www.w3.org/2000/svg"
 width="512.000000pt" height="512.000000pt" viewBox="0 0 512.000000 512.000000"
 preserveAspectRatio="xMidYMid meet">

<g transform="translate(0.000000,512.000000) scale(0.100000,-0.100000)"
fill="#000000" stroke="none">
<path d="M1731 4790 c-347 -44 -659 -199 -916 -455 -272 -272 -440 -622 -485
-1010 -6 -58 -10 -616 -10 -1547 l0 -1458 2240 0 2241 0 -3 868 c-3 772 -5
873 -20 922 -65 218 -174 369 -345 480 -123 81 -236 116 -418 130 -66 5 -138
14 -160 20 -92 26 -195 103 -249 185 -60 89 -76 151 -87 320 -11 183 -38 331
-85 467 -190 549 -642 945 -1209 1058 -117 24 -380 34 -494 20z m-771 -3670
l0 -160 160 0 160 0 0 160 0 160 160 0 160 0 0 -160 0 -160 160 0 160 0 0 160
0 160 320 0 320 0 0 -160 0 -160 160 0 160 0 0 160 0 160 160 0 160 0 0 -160
0 -160 160 0 160 0 0 160 0 160 160 0 160 0 0 -160 0 -160 160 0 160 0 0 160
0 160 160 0 160 0 0 -320 0 -320 -1920 0 -1920 0 0 320 0 320 160 0 160 0 0
-160z"/>
</g>
</svg>
