<?xml version="1.0" standalone="no"?>
<!DOCTYPE svg PUBLIC "-//W3C//DTD SVG 20010904//EN"
 "http://www.w3.org/TR/2001/REC-SVG-20010904/DTD/svg10.dtd">
<svg version="1.0" xmlns="http://www.w3.org/2000/svg"
 width="512.000000pt" height="512.000000pt" viewBox="0 0 512.000000 512.000000"
 preserveAspectRatio="xMidYMid meet">

<g transform="translate(0.000000,512.000000) scale(0.100000,-0.100000)"
fill="#000000" stroke="none">
<path d="M754 5101 c-37 -23 -58 -70 -51 -114 3 -17 161 -321 351 -674 l346
-642 -2 -788 -3 -788 -433 -5 -434 -5 -27 -31 c-22 -24 -31 -48 -40 -108 -13
-88 -43 -155 -95 -208 -64 -66 -127 -93 -262 -113 -45 -7 -80 -33 -95 -72 -12
-32 -12 -162 1 -237 31 -192 192 -347 393 -378 42 -6 77 -16 77 -22 1 -6 25
-199 54 -429 52 -414 53 -418 81 -447 16 -16 43 -32 60 -36 40 -7 98 16 120
49 11 18 30 141 66 428 27 222 52 414 54 427 l5 22 1060 0 c841 0 1060 -3
1060 -12 1 -7 25 -201 54 -431 52 -414 53 -418 81 -447 16 -16 43 -32 60 -36
40 -7 98 16 120 49 11 18 30 141 66 428 27 222 52 414 54 426 l5 23 360 0 360
0 5 -23 c2 -12 26 -200 53 -418 27 -217 55 -409 63 -425 18 -38 79 -68 123
-60 18 3 45 20 61 36 28 29 29 33 81 447 29 230 53 423 54 429 0 6 35 16 78
22 200 31 361 186 392 378 16 96 13 668 -4 707 -27 65 -35 66 -338 69 l-273 3
50 34 c90 63 267 249 338 357 222 336 289 728 192 1114 -131 515 -538 907
-1065 1025 -59 14 -158 19 -475 25 -368 7 -406 10 -475 30 -111 32 -193 80
-310 181 -151 131 -240 181 -415 232 -68 20 -96 21 -810 24 -713 3 -741 3
-771 -16z m1189 -2438 c164 -304 297 -557 297 -563 0 -7 -100 -10 -305 -10
l-305 0 0 572 c0 315 4 568 8 563 5 -6 142 -258 305 -562z"/>
</g>
</svg>
